<svg width="1152" height="1152" viewBox="0 0 1152 1152" fill="none" xmlns="http://www.w3.org/2000/svg">
<rect x="10.5" y="10.5" width="1131" height="1131" rx="141.5"  stroke="#4298E1" stroke-width="21"/>
<path d="M173.322 346.021C168.57 346.471 164.157 348.692 160.951 352.246C157.746 355.801 155.98 360.432 156 365.229V480.474C156.001 485.568 158.015 490.452 161.599 494.054C165.183 497.656 170.045 499.68 175.114 499.681C217.565 499.681 251.568 533.851 251.568 576.511C251.568 619.169 217.565 653.34 175.114 653.34C170.045 653.341 165.183 655.365 161.599 658.967C158.015 662.569 156.001 667.454 156 672.548V787.793C156.001 792.887 158.015 797.772 161.599 801.374C165.183 804.976 170.045 806.999 175.114 807H977.886C982.956 806.999 987.817 804.976 991.401 801.374C994.986 797.772 997 792.887 997 787.793V672.548C997 667.454 994.986 662.569 991.401 658.967C987.817 655.365 982.956 653.341 977.886 653.34C935.435 653.34 901.432 619.169 901.432 576.511C901.432 533.851 935.435 499.681 977.886 499.681C982.956 499.68 987.817 497.656 991.401 494.054C994.986 490.452 997 485.568 997 480.474V365.229C997 360.135 994.986 355.249 991.401 351.647C987.817 348.045 982.956 346.022 977.886 346.021H175.114C174.517 345.993 173.919 345.993 173.322 346.021ZM194.227 384.436H958.773V465.168C905.067 474.691 863.205 519.902 863.205 576.511C863.205 633.118 905.067 678.33 958.773 687.854V768.586H194.227V687.854C247.934 678.33 289.796 633.118 289.796 576.511C289.796 519.902 247.934 474.691 194.227 465.168V384.436ZM345.345 461.266C340.275 461.505 335.508 463.757 332.092 467.528C328.675 471.299 326.889 476.279 327.127 481.373C327.365 486.468 329.606 491.258 333.359 494.692C337.111 498.125 342.067 499.92 347.137 499.681H519.159C521.692 499.717 524.207 499.246 526.557 498.297C528.907 497.348 531.046 495.939 532.85 494.152C534.654 492.365 536.086 490.235 537.063 487.887C538.041 485.539 538.544 483.019 538.544 480.474C538.544 477.928 538.041 475.408 537.063 473.059C536.086 470.711 534.654 468.582 532.85 466.795C531.046 465.008 528.907 463.598 526.557 462.649C524.207 461.7 521.692 461.23 519.159 461.266H347.137C346.54 461.238 345.942 461.238 345.345 461.266ZM605.171 461.266C600.101 461.266 595.24 463.29 591.656 466.892C588.071 470.494 586.057 475.38 586.057 480.474V672.548C586.057 677.642 588.071 682.526 591.656 686.128C595.24 689.73 600.102 691.754 605.171 691.755H796.307C801.376 691.754 806.237 689.73 809.822 686.128C813.406 682.526 815.42 677.642 815.421 672.548V480.474C815.42 475.38 813.406 470.494 809.822 466.892C806.237 463.29 801.376 461.266 796.307 461.266H605.171ZM624.284 499.681H777.193V653.34H624.284V499.681ZM345.345 557.303C342.83 557.415 340.361 558.023 338.081 559.095C335.8 560.166 333.752 561.679 332.055 563.548C330.357 565.416 329.043 567.602 328.188 569.982C327.333 572.361 326.954 574.887 327.071 577.414C327.189 579.941 327.802 582.42 328.875 584.708C329.948 586.997 331.46 589.05 333.324 590.75C335.188 592.451 337.367 593.765 339.738 594.617C342.108 595.47 344.622 595.844 347.137 595.718H519.159C521.692 595.755 524.208 595.285 526.559 594.337C528.91 593.388 531.05 591.979 532.854 590.192C534.659 588.404 536.091 586.275 537.069 583.926C538.047 581.577 538.551 579.057 538.551 576.511C538.551 573.965 538.047 571.444 537.069 569.096C536.091 566.747 534.659 564.617 532.854 562.83C531.05 561.043 528.91 559.634 526.559 558.685C524.208 557.736 521.692 557.267 519.159 557.303H347.137C346.54 557.275 345.942 557.275 345.345 557.303ZM345.345 653.34C342.83 653.452 340.361 654.06 338.081 655.132C335.8 656.203 333.752 657.716 332.055 659.585C330.357 661.453 329.043 663.639 328.188 666.019C327.333 668.398 326.954 670.924 327.071 673.451C327.189 675.978 327.802 678.456 328.875 680.745C329.948 683.033 331.46 685.087 333.324 686.787C335.188 688.488 337.367 689.802 339.738 690.654C342.108 691.507 344.622 691.88 347.137 691.755H519.159C521.692 691.791 524.208 691.322 526.559 690.374C528.91 689.425 531.05 688.016 532.854 686.229C534.659 684.441 536.091 682.311 537.069 679.963C538.047 677.614 538.551 675.094 538.551 672.548C538.551 670.002 538.047 667.481 537.069 665.132C536.091 662.784 534.659 660.654 532.854 658.867C531.05 657.08 528.91 655.671 526.559 654.722C524.208 653.773 521.692 653.304 519.159 653.34H347.137C346.54 653.312 345.942 653.312 345.345 653.34Z" fill="#4298E1"/>
</svg>
