<svg width="1152" height="1152" viewBox="0 0 1152 1152" fill="none" xmlns="http://www.w3.org/2000/svg">
<rect x="10.5" y="10.5" width="1131" height="1131" rx="141.5" stroke="#4298E1" stroke-width="21"/>
<path d="M940.173 212.438L942.015 214.488C961.167 236.781 953.214 275.881 933.985 315.219C916.351 351.302 889.216 388.732 866.846 411.101L860.744 416.861L784.37 486.701L907.847 880.125C909.983 886.275 908.227 893.374 902.921 897.768L839.408 950.307L837.643 951.579C830.116 956.257 820.217 953.951 815.538 946.425L622.066 635.131L533.961 715.695L589.426 843.806C592.758 849.898 591.847 857.709 586.684 862.872L551.966 897.588L550.333 898.973C543.3 904.345 533.231 902.988 527.859 895.955L431.023 769.657C428.992 769.23 426.999 768.727 425.053 768.12C420.545 766.715 416.255 764.817 412.25 762.482L395.678 779.053C389.405 785.326 379.231 785.326 372.957 779.053C366.684 772.78 366.684 762.606 372.957 756.333L389.585 739.706C387.317 735.758 385.466 731.544 384.081 727.112C383.473 725.157 382.961 723.154 382.534 721.123L256.048 624.16C249.015 618.788 247.658 608.719 253.03 601.687L254.434 600.073L289.133 565.339C294.296 560.176 302.107 559.265 308.201 562.596L436.328 618.058L516.897 529.958L205.575 336.497C198.049 331.818 195.743 321.919 200.422 314.394L201.693 312.628L254.226 249.119C258.62 243.813 265.719 242.058 271.869 244.193L665.325 367.673L735.179 291.294L740.949 285.23C763.376 262.747 800.808 235.633 836.865 218.009C876.736 198.468 916.36 190.61 938.522 210.882L940.173 212.438ZM479.36 649.936C485.634 643.663 495.808 643.663 502.081 649.936C508.355 656.209 508.355 666.383 502.081 672.656L436.679 738.054C448.344 740.787 463.112 737.124 477.889 723.61L839.142 393.249L844.125 388.381C864.502 368.005 889.197 333.944 905.228 301.154C919.179 272.617 926.81 246.29 917.955 235.585L917.737 235.367L916.674 234.304C906.177 225.146 879.697 232.786 850.93 246.831C818.139 262.794 784.085 287.479 763.67 307.893L758.792 312.894L428.413 674.127C415.078 688.704 411.405 703.462 414.081 715.211L479.36 649.936ZM385.666 683.114C389.424 672.884 395.65 662.53 404.799 652.527L413.484 643.036L304.186 595.727L290.073 609.839L385.666 683.114ZM758.232 510.607L646.163 613.094L833.097 913.873L874.145 879.907L758.232 510.607ZM508.981 738.538L499.49 747.222C489.468 756.39 479.132 762.634 468.948 766.421L542.181 861.932L556.294 847.82L508.981 738.538ZM538.935 505.862L641.427 393.8L272.088 277.893L238.129 318.939L538.935 505.862Z" fill="#4298E1"/>
</svg>
