<svg width="1152" height="1152" viewBox="0 0 1152 1152" fill="none" xmlns="http://www.w3.org/2000/svg">
<rect x="10.5" y="10.5" width="1131" height="1131" rx="141.5" stroke="#4298E1" stroke-width="21"/>
<path d="M291.527 265.037L288.416 283.258C287.49 288.719 289.724 294.243 294.179 297.499C298.654 300.755 304.551 301.189 309.43 298.608L325.707 290.005L341.983 298.608C344.105 299.724 346.417 300.279 348.722 300.279C351.72 300.279 354.711 299.34 357.235 297.499C361.689 294.243 363.924 288.719 362.998 283.258L359.886 265.037L373.059 252.126C377.005 248.258 378.426 242.471 376.722 237.203C375.018 231.935 370.485 228.089 365.034 227.293L346.834 224.634L338.689 208.047C333.81 198.122 317.604 198.122 312.725 208.047L304.58 224.634L286.38 227.293C280.928 228.089 276.396 231.935 274.692 237.203C272.988 242.471 274.409 248.258 278.354 252.126L291.527 265.037ZM325.707 246.78C327.418 249.033 329.751 250.74 332.417 251.678C330.812 254.01 329.921 256.768 329.857 259.605C328.5 259.2 327.107 258.994 325.707 258.994C324.307 258.994 322.914 259.2 321.556 259.605C321.493 256.768 320.602 254.01 318.997 251.678C321.662 250.74 323.996 249.033 325.707 246.78ZM407.373 265.037L404.262 283.258C403.336 288.719 405.57 294.243 410.025 297.499C414.493 300.755 420.404 301.189 425.276 298.608L441.553 290.005L457.83 298.608C459.951 299.724 462.263 300.279 464.568 300.279C467.566 300.279 470.557 299.34 473.081 297.499C477.536 294.243 479.77 288.719 478.844 283.258L475.733 265.037L488.905 252.126C492.851 248.258 494.272 242.471 492.568 237.203C490.864 231.935 486.332 228.089 480.88 227.293L462.68 224.634L454.535 208.047C449.656 198.122 433.45 198.122 428.571 208.047L420.426 224.634L402.226 227.293C396.774 228.089 392.242 231.935 390.538 237.203C388.834 242.471 390.255 248.258 394.2 252.126L407.373 265.037ZM441.553 246.78C443.264 249.033 445.597 250.74 448.263 251.678C446.658 254.01 445.767 256.768 445.703 259.605C444.346 259.2 442.953 258.994 441.553 258.994C440.153 258.994 438.76 259.2 437.402 259.605C437.339 256.768 436.448 254.01 434.843 251.678C437.508 250.74 439.842 249.033 441.553 246.78ZM682.508 265.037L679.397 283.258C678.463 288.719 680.698 294.235 685.152 297.499C689.607 300.755 695.56 301.189 700.397 298.608L716.688 290.005L732.978 298.608C735.085 299.724 737.405 300.279 739.71 300.279C742.708 300.279 745.706 299.34 748.223 297.499C752.677 294.235 754.912 288.719 753.978 283.258L750.867 265.037L764.047 252.133C767.992 248.266 769.407 242.478 767.71 237.203C765.998 231.935 761.473 228.089 756.015 227.293L737.815 224.634L729.669 208.047C724.805 198.122 708.57 198.122 703.706 208.047L695.56 224.634L677.36 227.293C671.902 228.089 667.376 231.935 665.665 237.203C663.968 242.478 665.383 248.266 669.328 252.133L682.508 265.037ZM716.688 246.78C718.399 249.033 720.732 250.74 723.391 251.678C721.793 254.01 720.902 256.768 720.831 259.605C719.487 259.2 718.088 258.994 716.688 258.994C715.288 258.994 713.888 259.2 712.544 259.605C712.473 256.768 711.582 254.01 709.984 251.678C712.643 250.74 714.976 249.033 716.688 246.78ZM798.354 265.037L795.243 283.258C794.31 288.719 796.544 294.235 800.998 297.499C805.467 300.755 811.392 301.189 816.243 298.608L832.534 290.005L848.825 298.608C850.932 299.724 853.251 300.279 855.556 300.279C858.554 300.279 861.552 299.34 864.069 297.499C868.523 294.235 870.758 288.719 869.824 283.258L866.713 265.037L879.893 252.133C883.839 248.266 885.253 242.478 883.556 237.203C881.845 231.935 877.319 228.089 871.861 227.293L853.661 224.634L845.515 208.047C840.651 198.122 824.417 198.122 819.552 208.047L811.406 224.634L793.206 227.293C787.748 228.089 783.223 231.935 781.512 237.203C779.815 242.478 781.229 248.266 785.174 252.133L798.354 265.037ZM832.534 246.78C834.245 249.033 836.578 250.74 839.237 251.678C837.639 254.01 836.748 256.768 836.677 259.605C835.334 259.2 833.934 258.994 832.534 258.994C831.134 258.994 829.734 259.2 828.39 259.605C828.32 256.768 827.429 254.01 825.831 251.678C828.489 250.74 830.823 249.033 832.534 246.78ZM526.832 248.77L519.691 290.624C518.765 296.084 520.999 301.608 525.454 304.864C527.978 306.706 530.969 307.644 533.967 307.644C536.272 307.644 538.591 307.089 540.705 305.973L578.081 286.209L615.449 305.973C620.342 308.547 626.239 308.127 630.708 304.864C635.162 301.608 637.397 296.084 636.463 290.624L629.322 248.77L659.57 219.138C663.516 215.27 664.93 209.483 663.233 204.208C661.522 198.94 656.997 195.094 651.538 194.297L609.75 188.19L591.07 150.119C588.63 145.15 583.596 142 578.081 142C572.573 142 567.538 145.15 565.099 150.119L546.404 188.19L504.616 194.297C499.165 195.094 494.633 198.94 492.928 204.208C491.224 209.483 492.646 215.263 496.591 219.131L526.832 248.77ZM558.106 215.91C562.822 215.221 566.895 212.242 569.002 207.941L578.081 189.463L587.145 207.941C589.26 212.242 593.332 215.221 598.055 215.91L618.334 218.875L603.655 233.257C600.247 236.606 598.692 241.426 599.498 246.147L602.963 266.459L584.819 256.868C580.605 254.636 575.557 254.636 571.342 256.868L553.199 266.466L556.664 246.147C557.463 241.426 555.907 236.606 552.499 233.265L537.82 218.875L558.106 215.91ZM908.558 923.639H879.596V443.151C879.596 435.11 873.119 428.591 865.115 428.591H763.75V355.789C763.75 347.749 757.273 341.229 749.269 341.229H401.731C393.734 341.229 387.25 347.749 387.25 355.789V428.591H285.885C277.888 428.591 271.404 435.11 271.404 443.151V923.639H242.442C218.487 923.639 199 943.232 199 967.319V996.44C199 1004.49 205.484 1011 213.481 1011H937.519C945.523 1011 952 1004.49 952 996.44V967.319C952 943.232 932.513 923.639 908.558 923.639ZM850.635 457.711V923.639H763.75V457.711H850.635ZM416.212 370.35H734.788V443.151V923.639H676.865V850.837C676.865 794.644 631.387 748.916 575.5 748.916C519.606 748.916 474.135 794.644 474.135 850.837V923.639H416.212V443.151V370.35ZM647.904 923.639H503.096V850.837C503.096 810.697 535.579 778.036 575.5 778.036C615.421 778.036 647.904 810.697 647.904 850.837V923.639ZM300.365 457.711H387.25V923.639H300.365V457.711ZM923.039 981.88H227.962V967.319C227.962 959.286 234.46 952.759 242.442 952.759H285.885H401.731H488.615H662.385H749.269H865.115H908.558C916.548 952.759 923.039 959.286 923.039 967.319V981.88ZM358.288 515.952V865.398C358.288 873.446 351.805 879.958 343.808 879.958C335.811 879.958 329.327 873.446 329.327 865.398V515.952C329.327 507.911 335.811 501.392 343.808 501.392C351.805 501.392 358.288 507.911 358.288 515.952ZM792.712 865.398V515.952C792.712 507.911 799.188 501.392 807.192 501.392C815.196 501.392 821.673 507.911 821.673 515.952V865.398C821.673 873.446 815.196 879.958 807.192 879.958C799.188 879.958 792.712 873.446 792.712 865.398ZM445.173 486.832H503.096C511.093 486.832 517.577 480.312 517.577 472.271V414.03C517.577 405.99 511.093 399.47 503.096 399.47H445.173C437.176 399.47 430.692 405.99 430.692 414.03V472.271C430.692 480.312 437.176 486.832 445.173 486.832ZM459.654 428.591H488.615V457.711H459.654V428.591ZM546.538 486.832H604.462C612.466 486.832 618.942 480.312 618.942 472.271V414.03C618.942 405.99 612.466 399.47 604.462 399.47H546.538C538.542 399.47 532.058 405.99 532.058 414.03V472.271C532.058 480.312 538.542 486.832 546.538 486.832ZM561.019 428.591H589.981V457.711H561.019V428.591ZM647.904 486.832H705.827C713.831 486.832 720.308 480.312 720.308 472.271V414.03C720.308 405.99 713.831 399.47 705.827 399.47H647.904C639.9 399.47 633.423 405.99 633.423 414.03V472.271C633.423 480.312 639.9 486.832 647.904 486.832ZM662.385 428.591H691.346V457.711H662.385V428.591ZM445.173 603.313H503.096C511.093 603.313 517.577 596.801 517.577 588.753V530.512C517.577 522.471 511.093 515.952 503.096 515.952H445.173C437.176 515.952 430.692 522.471 430.692 530.512V588.753C430.692 596.801 437.176 603.313 445.173 603.313ZM459.654 545.072H488.615V574.193H459.654V545.072ZM546.538 603.313H604.462C612.466 603.313 618.942 596.801 618.942 588.753V530.512C618.942 522.471 612.466 515.952 604.462 515.952H546.538C538.542 515.952 532.058 522.471 532.058 530.512V588.753C532.058 596.801 538.542 603.313 546.538 603.313ZM561.019 545.072H589.981V574.193H561.019V545.072ZM647.904 603.313H705.827C713.831 603.313 720.308 596.801 720.308 588.753V530.512C720.308 522.471 713.831 515.952 705.827 515.952H647.904C639.9 515.952 633.423 522.471 633.423 530.512V588.753C633.423 596.801 639.9 603.313 647.904 603.313ZM662.385 545.072H691.346V574.193H662.385V545.072ZM445.173 719.795H503.096C511.093 719.795 517.577 713.283 517.577 705.235V646.994C517.577 638.946 511.093 632.434 503.096 632.434H445.173C437.176 632.434 430.692 638.946 430.692 646.994V705.235C430.692 713.283 437.176 719.795 445.173 719.795ZM459.654 661.554H488.615V690.675H459.654V661.554ZM546.538 719.795H604.462C612.466 719.795 618.942 713.283 618.942 705.235V646.994C618.942 638.946 612.466 632.434 604.462 632.434H546.538C538.542 632.434 532.058 638.946 532.058 646.994V705.235C532.058 713.283 538.542 719.795 546.538 719.795ZM561.019 661.554H589.981V690.675H561.019V661.554ZM647.904 719.795H705.827C713.831 719.795 720.308 713.283 720.308 705.235V646.994C720.308 638.946 713.831 632.434 705.827 632.434H647.904C639.9 632.434 633.423 638.946 633.423 646.994V705.235C633.423 713.283 639.9 719.795 647.904 719.795ZM662.385 661.554H691.346V690.675H662.385V661.554Z" fill="#4298E1"/>
<rect x="10.5" y="10.5" width="1131" height="1131" rx="141.5" stroke="#4298E1" stroke-width="21"/>
<path d="M291.527 265.037L288.416 283.258C287.49 288.719 289.724 294.243 294.179 297.499C298.654 300.755 304.551 301.189 309.43 298.608L325.707 290.005L341.983 298.608C344.105 299.724 346.417 300.279 348.722 300.279C351.72 300.279 354.711 299.34 357.235 297.499C361.689 294.243 363.924 288.719 362.998 283.258L359.886 265.037L373.059 252.126C377.005 248.258 378.426 242.471 376.722 237.203C375.018 231.935 370.485 228.089 365.034 227.293L346.834 224.634L338.689 208.047C333.81 198.122 317.604 198.122 312.725 208.047L304.58 224.634L286.38 227.293C280.928 228.089 276.396 231.935 274.692 237.203C272.988 242.471 274.409 248.258 278.354 252.126L291.527 265.037ZM325.707 246.78C327.418 249.033 329.751 250.74 332.417 251.678C330.812 254.01 329.921 256.768 329.857 259.605C328.5 259.2 327.107 258.994 325.707 258.994C324.307 258.994 322.914 259.2 321.556 259.605C321.493 256.768 320.602 254.01 318.997 251.678C321.662 250.74 323.996 249.033 325.707 246.78ZM407.373 265.037L404.262 283.258C403.336 288.719 405.57 294.243 410.025 297.499C414.493 300.755 420.404 301.189 425.276 298.608L441.553 290.005L457.83 298.608C459.951 299.724 462.263 300.279 464.568 300.279C467.566 300.279 470.557 299.34 473.081 297.499C477.536 294.243 479.77 288.719 478.844 283.258L475.733 265.037L488.905 252.126C492.851 248.258 494.272 242.471 492.568 237.203C490.864 231.935 486.332 228.089 480.88 227.293L462.68 224.634L454.535 208.047C449.656 198.122 433.45 198.122 428.571 208.047L420.426 224.634L402.226 227.293C396.774 228.089 392.242 231.935 390.538 237.203C388.834 242.471 390.255 248.258 394.2 252.126L407.373 265.037ZM441.553 246.78C443.264 249.033 445.597 250.74 448.263 251.678C446.658 254.01 445.767 256.768 445.703 259.605C444.346 259.2 442.953 258.994 441.553 258.994C440.153 258.994 438.76 259.2 437.402 259.605C437.339 256.768 436.448 254.01 434.843 251.678C437.508 250.74 439.842 249.033 441.553 246.78ZM682.508 265.037L679.397 283.258C678.463 288.719 680.698 294.235 685.152 297.499C689.607 300.755 695.56 301.189 700.397 298.608L716.688 290.005L732.978 298.608C735.085 299.724 737.405 300.279 739.71 300.279C742.708 300.279 745.706 299.34 748.223 297.499C752.677 294.235 754.912 288.719 753.978 283.258L750.867 265.037L764.047 252.133C767.992 248.266 769.407 242.478 767.71 237.203C765.998 231.935 761.473 228.089 756.015 227.293L737.815 224.634L729.669 208.047C724.805 198.122 708.57 198.122 703.706 208.047L695.56 224.634L677.36 227.293C671.902 228.089 667.376 231.935 665.665 237.203C663.968 242.478 665.383 248.266 669.328 252.133L682.508 265.037ZM716.688 246.78C718.399 249.033 720.732 250.74 723.391 251.678C721.793 254.01 720.902 256.768 720.831 259.605C719.487 259.2 718.088 258.994 716.688 258.994C715.288 258.994 713.888 259.2 712.544 259.605C712.473 256.768 711.582 254.01 709.984 251.678C712.643 250.74 714.976 249.033 716.688 246.78ZM798.354 265.037L795.243 283.258C794.31 288.719 796.544 294.235 800.998 297.499C805.467 300.755 811.392 301.189 816.243 298.608L832.534 290.005L848.825 298.608C850.932 299.724 853.251 300.279 855.556 300.279C858.554 300.279 861.552 299.34 864.069 297.499C868.523 294.235 870.758 288.719 869.824 283.258L866.713 265.037L879.893 252.133C883.839 248.266 885.253 242.478 883.556 237.203C881.845 231.935 877.319 228.089 871.861 227.293L853.661 224.634L845.515 208.047C840.651 198.122 824.417 198.122 819.552 208.047L811.406 224.634L793.206 227.293C787.748 228.089 783.223 231.935 781.512 237.203C779.815 242.478 781.229 248.266 785.174 252.133L798.354 265.037ZM832.534 246.78C834.245 249.033 836.578 250.74 839.237 251.678C837.639 254.01 836.748 256.768 836.677 259.605C835.334 259.2 833.934 258.994 832.534 258.994C831.134 258.994 829.734 259.2 828.39 259.605C828.32 256.768 827.429 254.01 825.831 251.678C828.489 250.74 830.823 249.033 832.534 246.78ZM526.832 248.77L519.691 290.624C518.765 296.084 520.999 301.608 525.454 304.864C527.978 306.706 530.969 307.644 533.967 307.644C536.272 307.644 538.591 307.089 540.705 305.973L578.081 286.209L615.449 305.973C620.342 308.547 626.239 308.127 630.708 304.864C635.162 301.608 637.397 296.084 636.463 290.624L629.322 248.77L659.57 219.138C663.516 215.27 664.93 209.483 663.233 204.208C661.522 198.94 656.997 195.094 651.538 194.297L609.75 188.19L591.07 150.119C588.63 145.15 583.596 142 578.081 142C572.573 142 567.538 145.15 565.099 150.119L546.404 188.19L504.616 194.297C499.165 195.094 494.633 198.94 492.928 204.208C491.224 209.483 492.646 215.263 496.591 219.131L526.832 248.77ZM558.106 215.91C562.822 215.221 566.895 212.242 569.002 207.941L578.081 189.463L587.145 207.941C589.26 212.242 593.332 215.221 598.055 215.91L618.334 218.875L603.655 233.257C600.247 236.606 598.692 241.426 599.498 246.147L602.963 266.459L584.819 256.868C580.605 254.636 575.557 254.636 571.342 256.868L553.199 266.466L556.664 246.147C557.463 241.426 555.907 236.606 552.499 233.265L537.82 218.875L558.106 215.91ZM908.558 923.639H879.596V443.151C879.596 435.11 873.119 428.591 865.115 428.591H763.75V355.789C763.75 347.749 757.273 341.229 749.269 341.229H401.731C393.734 341.229 387.25 347.749 387.25 355.789V428.591H285.885C277.888 428.591 271.404 435.11 271.404 443.151V923.639H242.442C218.487 923.639 199 943.232 199 967.319V996.44C199 1004.49 205.484 1011 213.481 1011H937.519C945.523 1011 952 1004.49 952 996.44V967.319C952 943.232 932.513 923.639 908.558 923.639ZM850.635 457.711V923.639H763.75V457.711H850.635ZM416.212 370.35H734.788V443.151V923.639H676.865V850.837C676.865 794.644 631.387 748.916 575.5 748.916C519.606 748.916 474.135 794.644 474.135 850.837V923.639H416.212V443.151V370.35ZM647.904 923.639H503.096V850.837C503.096 810.697 535.579 778.036 575.5 778.036C615.421 778.036 647.904 810.697 647.904 850.837V923.639ZM300.365 457.711H387.25V923.639H300.365V457.711ZM923.039 981.88H227.962V967.319C227.962 959.286 234.46 952.759 242.442 952.759H285.885H401.731H488.615H662.385H749.269H865.115H908.558C916.548 952.759 923.039 959.286 923.039 967.319V981.88ZM358.288 515.952V865.398C358.288 873.446 351.805 879.958 343.808 879.958C335.811 879.958 329.327 873.446 329.327 865.398V515.952C329.327 507.911 335.811 501.392 343.808 501.392C351.805 501.392 358.288 507.911 358.288 515.952ZM792.712 865.398V515.952C792.712 507.911 799.188 501.392 807.192 501.392C815.196 501.392 821.673 507.911 821.673 515.952V865.398C821.673 873.446 815.196 879.958 807.192 879.958C799.188 879.958 792.712 873.446 792.712 865.398ZM445.173 486.832H503.096C511.093 486.832 517.577 480.312 517.577 472.271V414.03C517.577 405.99 511.093 399.47 503.096 399.47H445.173C437.176 399.47 430.692 405.99 430.692 414.03V472.271C430.692 480.312 437.176 486.832 445.173 486.832ZM459.654 428.591H488.615V457.711H459.654V428.591ZM546.538 486.832H604.462C612.466 486.832 618.942 480.312 618.942 472.271V414.03C618.942 405.99 612.466 399.47 604.462 399.47H546.538C538.542 399.47 532.058 405.99 532.058 414.03V472.271C532.058 480.312 538.542 486.832 546.538 486.832ZM561.019 428.591H589.981V457.711H561.019V428.591ZM647.904 486.832H705.827C713.831 486.832 720.308 480.312 720.308 472.271V414.03C720.308 405.99 713.831 399.47 705.827 399.47H647.904C639.9 399.47 633.423 405.99 633.423 414.03V472.271C633.423 480.312 639.9 486.832 647.904 486.832ZM662.385 428.591H691.346V457.711H662.385V428.591ZM445.173 603.313H503.096C511.093 603.313 517.577 596.801 517.577 588.753V530.512C517.577 522.471 511.093 515.952 503.096 515.952H445.173C437.176 515.952 430.692 522.471 430.692 530.512V588.753C430.692 596.801 437.176 603.313 445.173 603.313ZM459.654 545.072H488.615V574.193H459.654V545.072ZM546.538 603.313H604.462C612.466 603.313 618.942 596.801 618.942 588.753V530.512C618.942 522.471 612.466 515.952 604.462 515.952H546.538C538.542 515.952 532.058 522.471 532.058 530.512V588.753C532.058 596.801 538.542 603.313 546.538 603.313ZM561.019 545.072H589.981V574.193H561.019V545.072ZM647.904 603.313H705.827C713.831 603.313 720.308 596.801 720.308 588.753V530.512C720.308 522.471 713.831 515.952 705.827 515.952H647.904C639.9 515.952 633.423 522.471 633.423 530.512V588.753C633.423 596.801 639.9 603.313 647.904 603.313ZM662.385 545.072H691.346V574.193H662.385V545.072ZM445.173 719.795H503.096C511.093 719.795 517.577 713.283 517.577 705.235V646.994C517.577 638.946 511.093 632.434 503.096 632.434H445.173C437.176 632.434 430.692 638.946 430.692 646.994V705.235C430.692 713.283 437.176 719.795 445.173 719.795ZM459.654 661.554H488.615V690.675H459.654V661.554ZM546.538 719.795H604.462C612.466 719.795 618.942 713.283 618.942 705.235V646.994C618.942 638.946 612.466 632.434 604.462 632.434H546.538C538.542 632.434 532.058 638.946 532.058 646.994V705.235C532.058 713.283 538.542 719.795 546.538 719.795ZM561.019 661.554H589.981V690.675H561.019V661.554ZM647.904 719.795H705.827C713.831 719.795 720.308 713.283 720.308 705.235V646.994C720.308 638.946 713.831 632.434 705.827 632.434H647.904C639.9 632.434 633.423 638.946 633.423 646.994V705.235C633.423 713.283 639.9 719.795 647.904 719.795ZM662.385 661.554H691.346V690.675H662.385V661.554Z" fill="#4298E1"/>
</svg>
